<?xml version="1.0" encoding="UTF-8" standalone="no"?>
<!DOCTYPE svg PUBLIC "-//W3C//DTD SVG 1.1//EN" "http://www.w3.org/Graphics/SVG/1.1/DTD/svg11.dtd">
<svg height="100%" stroke-miterlimit="10" style="fill-rule:nonzero;clip-rule:evenodd;stroke-linecap:round;stroke-linejoin:round;" version="1.1" viewBox="0 0 1080 1080" width="100%" xml:space="preserve" xmlns="http://www.w3.org/2000/svg" xmlns:vectornator="http://vectornator.io" xmlns:xlink="http://www.w3.org/1999/xlink">
<defs/>
    <g id="Layer-1" vectornator:layerName="Layer 1">
<path d="M1039.3 540.006C1039.3 815.762 815.763 1039.3 540.006 1039.3C264.25 1039.3 40.7037 815.762 40.7037 540.006C40.7037 264.247 264.25 40.705 540.006 40.705C815.763 40.705 1039.3 264.247 1039.3 540.006ZM1080 540.006C1080 241.766 838.242 0 540.006 0C241.771 0 0 241.766 0 540.006C0 838.241 241.771 1080 540.006 1080C838.242 1080 1080 838.241 1080 540.006Z" fill="#e31c2a" fill-rule="evenodd" opacity="1" stroke="none" vectornator:layerName="path"/>
        <path d="M1039.3 540.006C1039.3 815.762 815.763 1039.3 540.006 1039.3C264.25 1039.3 40.7037 815.762 40.7037 540.006C40.7037 264.247 264.25 40.705 540.006 40.705C815.763 40.705 1039.3 264.247 1039.3 540.006Z" fill="#ffffff" fill-rule="evenodd" opacity="1" stroke="none" vectornator:layerName="path 1"/>
        <path d="M1008.93 408.357C952.263 202.581 763.781 51.4327 540.006 51.4327C335.866 51.4327 161.1 177.207 88.9893 355.486L122.441 381.382C152.604 333.858 191.39 294.963 235.84 261.721L281.382 302.794L337.644 248.326L399.252 355.486L422.48 322.441L437.314 334.138C445.493 340.17 452.655 343.726 458.256 344.247C468.645 345.237 470.639 329.642 483.199 318.872C523.382 344.475 566.245 395.073 603.748 395.669L639.473 368.872L674.297 387.63C721.198 357.43 756.872 320.498 785.918 279.581L872.926 356.883C927.777 399.467 926.202 360.732 956.403 362.687C975.948 363.945 993.284 380.798 1008.93 408.357Z" fill="#73c6f2" fill-rule="evenodd" opacity="1" stroke="none" vectornator:layerName="path 2"/>
        <path d="M994.021 716.905L85.6365 716.003C155.576 898.783 332.627 1028.58 540.006 1028.58C747.03 1028.58 923.853 899.215 994.021 716.905ZM256.732 902.567C257.379 902.517 258.84 902.428 261.126 902.313C266.219 902.174 269.241 901.818 270.219 901.31C271.172 900.777 272.099 899.748 272.962 898.173C273.813 896.636 275.693 888.661 278.55 874.284L286.374 834.393L292.8 801.094C284.38 801.094 278.042 801.183 273.851 801.322C269.648 801.424 266.371 801.741 263.958 802.211C261.57 802.656 260.135 803.075 259.627 803.392C259.157 803.723 258.522 804.51 257.722 805.767C256.96 807.025 256.071 809.323 255.081 812.651C254.065 815.978 253.303 818.721 252.731 820.842L251.906 821.515L246.495 821.515L245.86 820.766C247.384 813.4 248.908 804.053 250.407 792.724L251.525 791.747C252.884 791.747 257.151 791.912 264.301 792.255C277.788 792.788 291.466 793.067 305.398 793.067C313.895 793.067 324.194 792.953 336.285 792.699C348.363 792.445 356.795 792.14 361.571 791.747L362.968 793.144C359.373 808.79 357.468 818.023 357.278 820.842L356.44 821.515L350.941 821.515L350.306 820.842C350.852 816.372 351.131 812.283 351.131 808.561C351.131 805.653 350.75 803.812 350.026 803.024C349.29 802.237 347.029 801.703 343.282 801.424C339.498 801.145 334.494 801.005 328.208 801.005L317.768 801.094L310.326 835.613L301.842 879.466C300.534 886.514 299.709 891.607 299.328 894.706C299.264 895.684 299.226 896.522 299.226 897.259C299.226 898.706 299.734 899.862 300.788 900.637C301.804 901.45 303.836 901.932 306.897 902.097L316.752 902.567L317.425 903.24L316.854 907.33L316.028 908.079C308.738 907.685 298.527 907.495 285.358 907.495C275.667 907.495 265.901 907.685 256.097 908.079L255.436 907.406L255.906 903.329L256.732 902.567ZM345.543 905.438L344.908 904.803L345.543 901.069L346.496 900.485C351.334 900.205 354.103 899.989 354.827 899.862C355.525 899.748 356.262 899.469 357.024 899.049C357.761 898.618 358.523 897.97 359.259 897.144C359.983 896.306 362.396 893.182 366.435 887.835L377.319 873.51L403.684 838.457L419.813 817.515C428.538 806.39 436.323 796.23 445.62 785.371L448.439 803.342L452.262 824.779L456.643 848.529L460.275 867.96L463.158 882.501L465.013 891.201C465.711 895.125 466.765 897.652 468.188 898.757C469.623 899.862 474.042 900.434 481.523 900.485L482.158 901.145L481.611 904.803L480.659 905.438C466.638 905.069 457.253 904.879 452.541 904.879C448.439 904.879 439.371 905.069 425.312 905.438L424.588 904.803L425.312 901.145L426.239 900.485C432.284 900.485 435.447 900.37 437.136 899.646C438.787 898.922 439.651 897.779 439.651 896.205C439.651 892.839 437.047 882.489 434.062 865.636C428.398 865.585 426.493 865.572 424.779 865.572L410.491 865.648L393.727 865.648C390.069 870.563 386.196 876.062 382.094 882.184C377.992 888.292 375.541 892.179 374.779 893.83C373.979 895.493 373.598 896.598 373.598 897.157C373.598 898.046 374.271 898.757 375.566 899.38C376.874 899.964 381.459 900.332 389.346 900.485L390.006 901.145L389.346 904.879L388.418 905.438C388.355 905.438 386.094 905.361 381.611 905.171C375.668 904.98 371.121 904.879 367.997 904.879C366.219 904.879 358.713 905.069 345.543 905.438ZM398.223 859.12C401.182 859.171 402.985 859.184 403.62 859.184C422.925 859.184 431.192 859.197 432.678 859.146L426.43 821.668L398.223 859.12ZM735.74 899.773C736.375 899.71 737.848 899.634 740.134 899.519C745.227 899.38 748.249 899.011 749.227 898.516C750.18 897.983 751.107 896.941 751.97 895.379C752.821 893.842 754.701 885.867 757.558 871.49L765.382 831.587L771.808 798.287C763.388 798.287 757.05 798.376 752.859 798.516C748.656 798.63 745.379 798.935 742.966 799.417C740.578 799.862 739.143 800.281 738.635 800.586C738.165 800.916 737.53 801.703 736.73 802.961C735.968 804.218 735.079 806.517 734.089 809.844C733.073 813.172 732.311 815.915 731.739 818.048L730.914 818.721L725.503 818.721L724.868 817.959C726.392 810.606 727.916 801.259 729.415 789.93L730.533 788.952C731.891 788.952 736.159 789.118 743.309 789.448C756.796 789.981 770.474 790.261 784.406 790.261C792.903 790.261 803.202 790.146 815.293 789.905C827.371 789.651 835.803 789.333 840.579 788.952L841.976 790.349C838.381 805.983 836.476 815.216 836.286 818.048L835.46 818.721L829.949 818.721L829.314 818.048C829.86 813.565 830.139 809.489 830.139 805.767C830.139 802.859 829.758 801.005 829.034 800.217C828.298 799.443 826.037 798.909 822.29 798.63C818.506 798.351 813.502 798.211 807.216 798.211L796.776 798.287L789.334 832.819L780.85 876.659C779.542 883.708 778.717 888.8 778.336 891.912C778.272 892.89 778.234 893.728 778.234 894.452C778.234 895.912 778.742 897.055 779.796 897.843C780.812 898.656 782.844 899.126 785.905 899.291L795.76 899.773L796.433 900.446L795.862 904.523L795.023 905.285C787.746 904.891 777.535 904.701 764.366 904.701C754.663 904.701 744.909 904.891 735.105 905.285L734.444 904.612L734.914 900.523L735.74 899.773ZM606.263 845.1C616.88 837.162 625.122 830.621 631.04 825.452L649.011 809.844C655.056 804.574 659.095 800.84 661.127 798.643C663.197 796.458 664.365 794.972 664.721 794.16C665.076 793.372 665.229 792.28 665.229 790.845L665.229 788.787L665.965 788.038C668.76 788.368 671.02 788.533 672.671 788.533L682.476 788.368C687.365 788.368 691.353 788.254 694.401 788.038L695.125 788.787L694.299 793.398L693.474 794.045C688.991 794.21 685.879 794.553 684.152 795.023C682.412 795.531 679.897 796.877 676.646 799.1C673.382 801.31 668.633 804.878 662.435 809.755C656.237 814.619 644.21 824.525 626.367 839.435L663.552 885.918C668.544 892.09 671.846 895.824 673.535 897.03C675.224 898.275 678.5 898.973 683.39 899.138L684.063 899.811L683.593 904.002L682.666 904.726C682.603 904.726 681.65 904.701 679.77 904.676C671.566 904.282 665.076 904.079 660.301 904.079C657.063 904.079 651.03 904.104 646.522 904.523L634.393 888.165C630.456 882.831 625.986 877.167 621.071 871.173C616.156 865.191 610.263 858.269 603.354 850.434L602.884 850.637C597.741 875.897 595.163 890.299 595.163 893.804C595.163 895.265 595.671 896.42 596.687 897.208C597.703 898.021 599.747 898.491 602.795 898.656L612.689 899.138L613.324 899.811L612.778 903.914L611.927 904.676C604.739 904.282 594.49 904.079 581.269 904.079C571.083 904.079 561.317 904.282 551.995 904.676L551.36 904.002L551.932 899.9L552.757 899.138C553.303 899.087 554.738 898.999 557.063 898.884C562.27 898.745 565.394 898.351 566.41 897.741C567.426 897.144 568.353 895.963 569.178 894.198C569.966 892.458 571.629 885.244 574.106 872.582L582.755 828.818C586.006 812.321 587.619 802.3 587.619 798.732C587.619 797.754 587.403 796.966 587.022 796.344C586.603 795.76 585.942 795.277 585.015 794.934C584.063 794.629 582.158 794.375 579.224 794.21L570.639 793.791L570.004 793.144L570.728 788.711L571.591 787.949C580.024 788.343 589.854 788.533 601.043 788.533C605.628 788.533 615.673 788.343 631.231 787.949L631.777 788.622L630.939 793.144L630.113 793.791C623.154 794.02 619.267 794.21 618.442 794.375C617.197 794.655 616.181 795.137 615.394 795.874C614.568 796.573 613.87 797.919 613.222 799.887C612.244 803.05 610.682 809.958 608.587 820.601L603.811 845.1L606.263 845.1Z" fill="#1d1a69" fill-rule="evenodd" opacity="1" stroke="none" vectornator:layerName="path 3"/>
        <path d="M663.197 510.478C617.566 502.121 589.562 434.189 574.805 410.414C600.344 410.973 690.21 436.589 663.197 510.478ZM208.306 318.275L208.306 365.253C208.306 365.253 225.083 339.649 208.306 318.275ZM262.739 407.887C262.739 407.887 236.602 452.744 227.763 469.343C218.936 485.942 209.399 494.057 209.399 494.057L209.399 374.689C209.399 374.689 220.702 360.922 234.126 365.507C247.549 370.104 266.968 393.053 275.972 397.473C284.977 401.88 284.443 399.06 284.443 399.06L284.1 346.266C284.1 346.266 270.321 347.676 257.608 335.319C244.895 322.949 246.305 314.833 231.116 308.826C215.939 302.819 199.34 303.175 199.34 303.175L199.34 504.128C199.34 504.128 185.561 526.379 155.182 548.273C124.816 570.181 105.385 573 103.975 578.652C102.566 584.304 130.811 582.538 140.348 590.666C149.886 598.782 154.115 623.864 155.88 648.223C157.646 672.594 155.88 707.202 155.88 707.202L199.67 707.202L199.67 637.834C183.541 622.912 160.618 611.952 161.176 609.716C161.824 607.062 170.651 607.481 199.67 580.036L199.67 529.033C173.762 558.942 147.257 581.687 144.222 582.513C138.926 583.935 127.623 576.417 127.623 576.417C127.623 576.417 179.185 544.197 197.549 521.286C215.914 498.388 246.648 456.134 246.648 456.134C239.409 476.442 224.854 498.273 208.916 517.984L208.916 570.956C242.558 535.154 256.528 453.633 256.528 453.633C256.528 453.633 258.649 490.145 252.998 568.898C247.346 647.664 229.338 701.005 228.982 703.862C228.626 706.732 223.686 672.721 210.973 651.246C210.351 650.179 209.665 649.137 208.916 648.096L208.916 707.202L278.639 707.202C275.833 672.963 253.442 395.758 268.695 424.613L288.228 707.202L396.877 707.202L396.877 605.881C396.877 605.881 401.754 605.652 409.945 605.246L409.945 707.202L423.547 707.202L423.547 604.56C427.573 604.357 431.954 604.128 436.615 603.874L436.615 707.202L448.261 707.202L448.261 603.239C452.478 603.011 456.859 602.757 461.33 602.503L461.33 707.202L474.042 707.202L474.042 601.766C478.36 601.499 482.729 601.245 487.111 600.966L487.111 707.202L496.267 707.202L496.471 770.702L513.654 943.868C523.331 860.251 535.32 797.69 537.06 772.798L540.641 667.73C540.883 644.261 541.048 620.727 541.2 597.169L541.327 597.156L541.327 707.202L548.49 707.202L548.49 596.559C550.636 596.369 552.732 596.178 554.777 596L555.018 596L555.018 707.202L562.968 707.202L562.968 595.213C565.216 594.984 567.362 594.756 569.42 594.527L569.496 594.527L569.496 707.202L576.481 707.202L576.481 593.689C578.894 593.384 581.078 593.067 583.021 592.762L583.021 707.202L590.273 707.202L590.273 591.365L612.879 591.365C612.879 591.365 617.477 591.72 616.054 586.424C614.975 582.335 575.287 567.971 541.632 537.682C542.013 492.088 542.623 446.495 544.007 401.169C548.617 397.879 550.382 398.438 551.284 403.264C565.762 456.922 626.989 569.584 683.873 515.952C694.82 468.085 670.677 439.586 642.331 419.469C631.231 411.595 611.851 401.575 596.407 395.415C572.455 385.84 567.553 388.367 555.64 370.155C552.008 365.977 548.414 358.903 547.601 349.479C543.931 306.934 547.309 221.165 546.521 188.185C583.771 175.9 651.868 194.16 689.689 205.073C740.896 219.845 797.398 248.916 810.619 251.766C811.102 223.736 812.537 225.763 794.782 213.007C783.009 204.544 776.773 200.883 764.493 194.715C576.278 100.218 384.227 118.733 217.666 239.291C275.172 229.074 433.974 143.347 494.464 200.774C493.727 329.502 494.464 200.774 493.727 329.502C466.575 328.41 469.737 360.427 494.058 366.256C494.172 386.322 495.518 427.331 495.442 451.74L495.518 475.693C482.069 452.413 483.288 450.28 476.912 449.746C468.429 449.035 412.637 463.526 354.357 443.739C296.089 423.965 266.066 401.359 262.739 407.887ZM277.153 432.004C277.153 432.004 299.404 490.983 343.549 536.539C387.695 582.106 408.18 592.343 411.71 592.343C413.349 592.343 453.532 591.504 495.886 590.184L495.556 489.84C486.184 473.876 480.164 462.37 477.052 460.618C471.401 457.43 417.362 472.264 365.101 454.61C312.828 436.945 277.865 418.58 275.744 420.346C273.623 422.111 277.153 432.004 277.153 432.004ZM541.264 588.571C572.303 587.288 596.407 585.777 595.366 584.215C593.054 580.76 566.257 573.763 541.518 551.893C541.416 564.123 541.34 576.353 541.264 588.571Z" fill="#d6251d" fill-rule="evenodd" opacity="1" stroke="none" vectornator:layerName="path 4"/>
        <path d="M731.968 494.082C726.469 506.338 719.458 517.908 711.089 528.436C703.342 538.177 693.639 547.867 682.831 555.436L724.843 555.03L721.389 562.726C711.178 585.408 686.882 606.033 663.667 620.575L711.089 620.842L707.799 628.373C698.617 649.29 685.676 666.092 667.54 676.112L693.601 677.243L693.169 703.964L726.659 703.964L731.968 494.082ZM1019 636.59C1018.38 639.714 1017.71 642.825 1017.02 645.924L982.489 650.217C987.645 662.015 997.056 672.594 1007.6 681.954C1004.76 691.302 1001.67 700.535 998.301 709.641L961.318 709.641L955.933 709.641L946.7 709.641L946.7 709.361L864.785 709.361L864.455 709.641L855.654 709.641L856.035 709.361L855.654 709.361L855.654 709.641L731.93 709.361L731.917 709.361L687.67 709.361L688.114 682.412L636.997 680.176C669.826 676.176 690.083 655.335 702.846 626.201L643.499 625.871C668.048 613.26 703.824 588.609 716.461 560.516L661.101 561.062C690.642 550.026 727.866 511.151 738.343 456.033C746.56 499.251 761.064 538.52 781.18 558.789C803.799 543.041 824.005 518.631 831.498 495.174L780.583 495.936C803.38 480.455 838.458 452.947 849.342 394.59L849.342 394.59L849.342 394.59L849.342 394.59L849.342 394.59C859.324 448.057 874.615 482.373 894.643 499.658C903.088 493.104 912.194 484.926 920.652 474.435C933.391 458.636 944.668 437.554 950.015 408.903C950.231 407.658 951.298 406.706 952.606 406.68C954.092 406.655 955.324 407.836 955.349 409.322L955.641 424.067C966.589 473.749 982.756 504.623 1003.56 518.758L962.931 517.425C972.964 548.794 991.443 572.226 1022.32 583.948L973.205 585.294C983.365 608.142 997.78 626.188 1019 636.59ZM946.903 699.087L951.323 477.115L950.371 429.731C944.122 449.632 934.915 465.304 924.843 477.813C916.436 488.253 907.419 496.47 898.986 503.087C899.405 503.391 899.824 503.684 900.243 503.976L897.957 503.899C896.141 505.309 894.351 506.643 892.611 507.9L934.788 507.278C936.273 507.252 937.493 508.446 937.505 509.932C937.505 510.237 937.467 510.542 937.366 510.821C932.26 526.76 921.491 543.079 908.105 556.91C906.555 558.522 904.981 560.085 903.355 561.621C908.181 564.504 913.388 567.031 919.001 569.165L893.957 569.851C888.077 574.575 881.943 578.766 875.745 582.259L876.329 583.3L916.017 582.805C917.503 582.792 918.722 583.973 918.747 585.459C918.747 585.904 918.646 586.323 918.455 586.691C914.023 596.673 909.286 606.148 903.698 614.631C912.499 620.956 922.723 625.706 934.622 628.551L894.884 635.244C907.178 663.374 924.45 684.748 946.903 699.087ZM899.418 611.342C904.041 604.268 908.079 596.47 911.864 588.241L879.568 588.647C885.156 597.359 891.696 605.005 899.418 611.342ZM873.218 577.496C877.104 575.312 880.965 572.823 884.749 570.105L869.89 570.499C870.944 572.886 872.049 575.223 873.218 577.496ZM898.681 558.624C900.574 556.859 902.428 555.043 904.231 553.188C916.093 540.92 925.783 526.696 931.028 512.713L883.937 513.412L883.937 513.412C883.06 513.424 882.197 513.005 881.676 512.231C880.85 510.999 881.168 509.335 882.387 508.497C884.61 506.998 886.946 505.373 889.359 503.62L859.616 502.642C867.223 526.404 879.669 545.619 898.681 558.624ZM844.643 429.426C839.372 441.999 832.425 453.823 823.637 464.732C815.775 474.486 807.05 482.754 797.5 490.285L838.94 489.663L836.642 496.825C828.869 521.146 808.384 546.14 785.232 562.536C786.54 563.641 787.861 564.657 789.194 565.596L821.097 565.203L817.668 572.899C809.489 591.301 800.18 608.256 786.337 620.537C788.851 622.455 791.455 624.271 794.134 625.985L811.584 625.68L808.206 633.389C802.643 646.128 795.912 658.523 787.823 669.826C799.799 679.338 814.175 685.803 830.304 687.771L773.268 687.339L772.303 688.317L783.67 704.078L850.154 704.23L844.643 429.426ZM783.695 666.333C791.201 655.767 797.703 643.93 803.266 631.23L802.516 631.243L759.095 632.005C764.848 645.15 773.217 656.961 783.695 666.333ZM782.069 617.082C795.57 605.424 804.637 588.926 812.74 570.702L799.049 570.88L799.062 570.88L798.999 570.88L757.812 571.4C758.854 571.007 759.895 570.587 760.937 570.143L747.716 569.889C756.403 589.206 767.807 605.005 782.069 617.082Z" fill="#03913f" fill-rule="evenodd" opacity="1" stroke="none" vectornator:layerName="path 5"/>
</g>
</svg>
